<!-- <svg id="Group_3125" data-name="Group 3125" xmlns="http://www.w3.org/2000/svg" xmlns:xlink="http://www.w3.org/1999/xlink" viewBox="0 0 12.9 14.382"> -->
<svg id="Group_3125" data-name="Group 3125" xmlns="http://www.w3.org/2000/svg" xmlns:xlink="http://www.w3.org/1999/xlink" viewBox="-2 0 16.9 12.382">
  <defs>
    <clipPath id="clip-path">
      <rect id="Rectangle_2593" data-name="Rectangle 2593" width="12.9" height="14.382" transform="translate(0 0)" fill="none"/>
    </clipPath>
  </defs>
  <g id="Group_3124" data-name="Group 3124" clip-path="url(#clip-path)">
    <path id="Path_1557" data-name="Path 1557" d="M1.939,9.412c0-.909,0-1.782,0-2.654-.01-1.479.028-2.96-.058-4.435C1.821,1.315,2.422.9,3.137.447A3.32,3.32,0,0,1,6.373.4c.642.257,1.269.56,1.926.77a4.1,4.1,0,0,0,3.861-.3C12.392.7,12.6.5,12.885.259c.008.176.014.235.014.294,0,2.49.008,4.979-.015,7.469a1.012,1.012,0,0,1-.326.653,3.6,3.6,0,0,1-3.395.746c-.775-.185-1.505-.556-2.266-.81-1.177-.392-2.364-.889-3.6-.239a7.588,7.588,0,0,0-1.031.772c-.109.084-.213.175-.327.268"/>
    <rect id="Rectangle_2592" data-name="Rectangle 2592" width="0.805" height="13.955" transform="translate(0 0.427)"/>
  </g>
</svg>
